<?xml version="1.0" ?><svg data-name="Layer 1" id="Layer_1" viewBox="0 0 128 128" xmlns="http://www.w3.org/2000/svg"><defs><style>.cls-1{fill:none;stroke:#062b31;stroke-miterlimit:10;stroke-width:6px;}</style></defs><title/><path class="cls-1" d="M53.48,63C58.69,60.82,63,56.6,63,48.6c0-20.17-20.85-19.78-20.85-19.78H5v73.35H42.16s23.16,1.25,23.16-22.87C65.32,69.17,59.78,64.75,53.48,63ZM38.76,41.76s9.73-1,9.73,7.77-8.74,8.25-8.74,8.25H22.31l-.08-16Zm0,44.39H22.22l.08-16H39.75s8.74-.54,8.74,8.25S38.76,86.14,38.76,86.14Z"/><rect class="cls-1" height="7.52" width="29.33" x="82.24" y="31.74"/><path class="cls-1" d="M98,90.65c-14.09,0-13.13-13.25-13.13-13.25L123,77.33C123,57.26,115.21,46,97.07,46S71.14,59.77,71.14,73.86,78,101.72,98.55,101.72s23.87-17.05,23.87-17.05H108.27S106.27,90.65,98,90.65Zm-1-33.2c10.74,0,11.9,9.33,11.9,11H85.17S86.33,57.45,97.07,57.45Z"/></svg>