<?xml version="1.0" encoding="utf-8"?>
<!-- Generator: Adobe Illustrator 27.5.0, SVG Export Plug-In . SVG Version: 6.00 Build 0)  -->
<svg version="1.1" id="Layer_1" xmlns="http://www.w3.org/2000/svg" xmlns:xlink="http://www.w3.org/1999/xlink" x="0px" y="0px"
	 viewBox="0 0 1200 1200" style="enable-background:new 0 0 1200 1200;" xml:space="preserve">
<g>
	<linearGradient id="SVGID_1_" gradientUnits="userSpaceOnUse" x1="600" y1="941.5476" x2="600" y2="705.7392">
		<stop  offset="0" style="stop-color:#FFFFFF;stop-opacity:0"/>
		<stop  offset="0.1205" style="stop-color:#FBFBFB;stop-opacity:0.1205"/>
		<stop  offset="0.2454" style="stop-color:#EEEEEE;stop-opacity:0.2454"/>
		<stop  offset="0.3724" style="stop-color:#DADADA;stop-opacity:0.3724"/>
		<stop  offset="0.5008" style="stop-color:#BCBCBC;stop-opacity:0.5008"/>
		<stop  offset="0.6304" style="stop-color:#979797;stop-opacity:0.6304"/>
		<stop  offset="0.761" style="stop-color:#696969;stop-opacity:0.761"/>
		<stop  offset="0.8898" style="stop-color:#343434;stop-opacity:0.8898"/>
		<stop  offset="1" style="stop-color:#000000"/>
	</linearGradient>
	<path style="fill:url(#SVGID_1_);" d="M1082.43,705.739h-17.57h-0.981h-7.296h-20.895h-4.922h-24.25h-17.498h-8.86h-0.018h-13.263
		h-9.174h-13.097h-3.658h-12.319h-0.418h-13.081h-3.313h-6.27h-10.124h-10.23h-0.348h-20.542h-18.718h-5.069h-13.879h-19.437
		h-19.666h-1.181h-21.547h-4.018h-35.521h-7.715h-18.139h-2.915h-3.536h-11.68h-19.068h-9.424h-11.232h-16.477h-0.783h-18.131
		h-6.351h-5.227h-20.244h-21.499h-34.646h-10.56h-8.167h-27.243h-22.789h-23.181h-40.399h-5.026h-11.329h-44.039H311.08h-3.463
		h-1.854h-22.208h-14.834h-3.519H246.85h-2.877h-11.227h-95.538H100v2.274v14.984v2.274h37.209v24.189h5.923v60.788h-2.65v9.352
		h14.34v11.69h7.949v2.543v55.362c0,0.892-0.351,1.72-0.881,2.436c-1.709,2.309-3.026,6.773-3.312,9.631
		c-0.313,3.126-0.354,6.476,1.051,9.313c0.62,1.251,2.614,4.32,1.262,5.673c-3.545,3.545-3.079,11.101-0.834,15.184
		c1.02,1.856,1.711,4.013,2.227,6.059c0.217,0.862,1.028,3.221,0.243,4.007c-0.015,0.015-0.028,0.034-0.043,0.049h65.148
		c-0.007-1.205-0.243-2.504-0.349-3.613c-0.138-1.446-0.341-2.89-0.657-4.309c-0.452-2.029-1.128-4.033-2.219-5.813
		c-0.796-1.298-1.805-2.416-2.93-3.435c-0.418-0.379-2.72-1.866-2.72-2.401c0-10.755-4.91-14.495-9.001-14.495
		c-3.443,0-2.581-1.987-1.386-3.313c0.458-0.508,0.802-1.125,0.957-1.79c4.334-18.664-0.272-33.997-0.272-36.747
		c0-7.715-1.052-11.288-1.578-12.593c-0.181-0.448-0.292-0.921-0.292-1.404v-17.8v-2.543h7.949V819.6h14.34v-9.352h-2.65V749.46
		h5.923v-24.189h11.227v6.846h2.877v128.912h6.17v5.408h4.334v5.408h7.849v42.307c0,0,0,1.414,0,7.886
		c20.61,0,24.527-7.886,24.527-7.886h16.034V774.279h0.086v-4.75h1.768v-29.775h3.463v81.247h13.466v6.319h-7.781v-1.049
		c0-1.173-0.951-2.124-2.125-2.124h-1.435c-1.173,0-2.125,0.951-2.125,2.124v7.781c0,1.173,0.951,2.125,2.125,2.125h1.435
		c1.173,0,2.125-0.951,2.125-2.125v-1.048h7.781v2.566c0,2.194,1.779,3.973,3.973,3.973h1.545v27.593h5.96v24.944h4.856v12.306
		h-4.263l8.388,10.061v9.889h-4.912v1.904h4.912v5.739h1.904v-5.739h4.912v-1.904h-4.912v-9.889l8.389-10.061h-4.263V892.08h4.856
		v-24.944h5.96v-27.593h1.545c2.194,0,3.974-1.779,3.974-3.973v-2.566h7.781v1.048c0,1.173,0.951,2.125,2.125,2.125h1.435
		c1.173,0,2.125-0.951,2.125-2.125v-7.781c0-1.173-0.951-2.124-2.125-2.124h-1.435c-1.173,0-2.125,0.951-2.125,2.124v1.049h-7.781
		v-6.319h13.465v-80.937h2.374v-4.747h2.652v111.043h11.367v3.438h7.75v3.438h25.143v1.786l14.343,15.385h6.296l4.727,8.556h1.742
		l1.238,16.956h0.322v23c0,0.521,0.329,0.942,0.736,0.942c0.406,0,0.735-0.421,0.735-0.942v-23h0.322l1.238-16.956h1.742
		l4.727-8.556h3.94l12.014-15.385h9.102l2.942-5.573h11.352V908.2h6.934v4.736h44.926V908.2h14.845v-48.138h25.47v-55.49h6.351
		v104.035h75.116v-12.515h19.112v-18.356h17.159v6.828v2.009h1.688v2.009h1.567v-2.009h5.304v2.009h1.567v-2.009h10.969v2.009h1.567
		v-2.009h5.301v33.561c0,0.825,1.247,1.497,2.777,1.497s2.777-0.672,2.777-1.497v-24.041v-9.519h3.631v2.009h1.567v-2.009h5.424
		v2.009h1.567v-4.018h1.547V746.475h1.338v3.477l9.084,3.53v8.911c0,0.247,0.259,0.446,0.579,0.446c0.32,0,0.579-0.199,0.579-0.446
		v-8.911l9.084-3.53h0.067v-3.477h0.815v88.947v42.427h15.161v2.463h2.558v28.296h2.634v-14.429h2.634v-13.867h3.318v-2.463h27.859
		v9.184l26.48,19.124h2.157v8.532l3.787,3.819v10.18c0,0.324,0.264,0.588,0.589,0.588s0.588-0.264,0.588-0.588v-10.18l3.787-3.82
		h-0.022v-8.532l3.433-3.433v-15.692h3.531v-13.742l0.348,0.193v-38.063v-83.778h0.776v5.01h3.575v-2.505h3.575v-2.505h2.303v75.864
		h7.072v6.64h12.635v5.979h3.793v13.076h6.848v13.076h8.534v10.93h3.898v10.93h27.743v-10.93h3.898v-10.93h8.533v-13.076h5.91v0.309
		l19.894,5.079v-2.549h16.599l9.986,2.549v-7.953h6.713v-10.51h19.104V821.56h8.277v-57.884h17.57v-22.84H1100v-15.564v-2.274
		v-14.984v-2.274H1082.43z"/>
	<g>
		<polygon style="fill:#A7A9AC;" points="863.615,547.497 863.615,573.584 850.955,573.584 850.955,531.157 786.354,531.157 
			786.354,573.584 786.354,703.266 885.195,703.266 885.195,573.584 885.195,535.521 		" />
		<polygon style="fill:#808285;" points="599.816,604.433 599.816,548.943 552.847,548.943 552.847,703.266 594.59,703.266 
			599.816,703.266 641.559,703.266 641.559,604.433 		"/>
		<path style="fill:#808285;" d="M253.02,542.569h4.334v-5.408h7.849v-42.306c0,0,0-1.415,0-7.886
			c20.61,0,24.527,7.886,24.527,7.886h16.034v208.411h-22.208h-18.352H246.85V547.977h6.17V542.569z"/>
		<path style="fill:#808285;" d="M377.276,584.859h1.435c1.173,0,2.125-0.951,2.125-2.125v-7.781c0-1.173-0.951-2.125-2.125-2.125
			h-1.435c-1.173,0-2.125,0.951-2.125,2.125v1.048h-7.781v-2.566c0-2.194-1.779-3.973-3.973-3.973h-1.545v-27.593h-5.96v-24.944
			h-4.856v-12.306h4.263l-8.388-10.061v-9.889h4.912v-1.904h-4.912v-5.739h-1.904v5.739h-4.912v1.904h4.912v9.889l-8.388,10.061
			h4.263v12.306h-4.856v24.944h-5.96v27.593h-1.545c-2.194,0-3.973,1.779-3.973,3.973v2.566h-7.781v-1.048
			c0-1.173-0.951-2.125-2.125-2.125h-1.435c-1.174,0-2.125,0.951-2.125,2.125v7.781c0,1.173,0.951,2.125,2.125,2.125h1.435
			c1.173,0,2.125-0.951,2.125-2.125v-1.048h7.781v6.319H311.08v115.262h69.755V588.005H367.37v-6.319h7.781v1.048
			C375.151,583.908,376.102,584.859,377.276,584.859z"/>
		<polygon points="824.284,557.857 824.284,555.982 821.7,555.982 821.7,549.464 819.801,549.464 819.801,546.815 816.61,546.815 
			816.61,539.032 814.103,539.032 814.103,531.249 812.659,531.249 812.659,528.694 809.341,528.694 809.341,514.827 
			806.707,514.827 806.707,500.398 804.073,500.398 804.073,528.694 801.516,528.694 801.516,531.249 800.072,531.249 
			800.072,539.032 797.565,539.032 797.565,546.815 794.373,546.815 794.373,549.464 792.474,549.464 792.474,555.982 
			789.891,555.982 789.891,557.857 787.536,557.857 787.536,703.266 826.639,703.266 826.639,557.857 		"/>
		<path style="fill:#808285;" d="M751.071,531.393v-18.48v19.709v-1.352v-8.002v-34.395c0-0.824-1.247-1.497-2.777-1.497
			c-1.529,0-2.777,0.672-2.777,1.497v34.395h-24.991v8.002h-20.131v-18.356h-23.603v18.48h-14.578v171.873h98.575V531.393H751.071z"
			/>
		<path style="fill:#A7A9AC;" d="M430.122,553.985l14.343-15.386h6.296l4.727-8.556h1.742l1.238-16.956h0.322v-23
			c0-0.521,0.329-0.942,0.736-0.942c0.406,0,0.736,0.421,0.736,0.942v23h0.322l1.238,16.956h1.742l4.727,8.556h3.94l12.014,15.386
			h9.102l2.942,5.573h21.912v143.708H426.26V559.558h3.862V553.985z"/>
		<polygon style="fill:#808285;" points="1037.48,558.37 1022.801,558.37 1022.801,552.966 998.044,552.966 998.044,558.37 
			993.654,558.37 993.654,568.88 989.019,568.88 985.226,568.88 985.226,555.804 978.378,555.804 978.378,542.728 969.845,542.728 
			969.845,531.798 965.947,531.798 965.947,520.868 938.204,520.868 938.204,531.798 934.306,531.798 934.306,542.728 
			925.773,542.728 925.773,555.804 918.925,555.804 918.925,568.88 915.132,568.88 915.132,703.266 989.019,703.266 
			1056.584,703.266 1056.584,568.88 1037.48,568.88 		"/>
		<polygon points="1010.873,555.495 1010.873,566.364 1004.182,566.364 1004.182,550.416 984.289,555.495 984.289,566.364 
			966.877,566.364 966.877,553.746 962.644,553.746 962.644,539.723 949.945,539.723 949.945,547.19 944.918,547.19 
			944.918,553.746 940.95,553.746 940.95,703.266 957.704,703.266 966.877,703.266 1030.767,703.266 1030.767,566.364 
			1030.767,550.416 		"/>
		<polygon points="305.849,639.476 305.849,634.726 301.108,634.726 301.108,607.426 275.231,629.975 275.231,634.726 
			270.49,634.726 270.49,639.476 268.722,639.476 268.722,703.266 307.617,703.266 307.617,639.476 		"/>
		<polygon points="438.074,562.646 438.074,559.208 430.324,559.208 430.324,555.771 404.979,555.771 404.979,559.208 
			397.229,559.208 397.229,562.646 385.861,562.646 385.861,703.266 449.442,703.266 449.442,562.646 		"/>
		<path d="M366.935,590.389v-9.483h-5.304c0-3.462-2.806-6.268-6.268-6.268h-15.751c-3.462,0-6.268,2.806-6.268,6.268h-5.304v9.483
			h-2.572v112.877h44.039V590.389H366.935z"/>
		<rect x="472.231" y="636.003" width="27.243" height="67.263"/>
		<polygon points="559.501,500.805 559.501,496.069 514.575,496.069 514.575,500.805 507.641,500.805 507.641,703.266 
			574.346,703.266 574.346,500.805 		"/>
		<path style="fill:#414042;" d="M226.823,659.545v-60.788h2.65v-9.352h-14.34v-11.69h-7.949v-2.543v-17.8
			c0-0.483,0.111-0.956,0.292-1.404c0.526-1.304,1.578-4.877,1.578-12.592c0-2.75,4.606-18.083,0.272-36.747
			c-0.155-0.666-0.499-1.283-0.957-1.79c-1.195-1.326-2.057-3.313,1.386-3.313c4.091,0,9.001-3.741,9.001-14.495
			c0-0.535,2.302-2.022,2.72-2.401c1.125-1.02,2.134-2.138,2.93-3.436c1.092-1.78,1.768-3.784,2.219-5.813
			c0.316-1.419,0.52-2.863,0.657-4.309c0.145-1.519,0.543-3.395,0.249-4.894c-0.363-1.849-2.073-2.293-3.462-3.21
			c-0.682-0.451-1.37-0.893-2.061-1.332c-1.683-1.068-3.892-0.721-5.154,0.822c-1.258,1.539-2.701,3.176-3.097,3.33
			c-0.954,0.372-2.346,0.292-3.641,0.193c-1.26-0.097-2.387-0.768-3.063-1.835c-0.973-1.537-2.354-3.992-3.378-6.925
			c0,0-0.468-7.715-10.638-16.366c-3.156-5.884,1.52-7.949-0.468-17.418c2.455,0,8.884-1.403,8.884-1.403l-8.768-1.87l7.598-4.91
			l-10.17,1.286l5.494-9.001l-8.3,7.014c0,0-2.923,1.052-2.923-1.52s-1.52-13.327-1.52-13.327s-1.403,12.742-1.87,13.56
			c-0.468,0.818-2.104,1.754-4.91-0.117c-2.806-1.87-7.365-5.027-7.365-5.027s6.43,7.716,6.196,9.001
			c-0.234,1.286-8.884-0.818-8.884-0.818s7.832,2.806,7.365,3.624c-0.468,0.818-5.144,1.987-5.144,1.987s5.26,1.052,5.26,1.987
			s0.818,7.715-2.572,7.715s-1.637-6.43-3.624-9.469s-2.65-10.404-4.247-14.729c-1.598-4.325-4.52-18.587-4.52-23.497
			c0-4.91-0.935-7.482-0.935-7.482h5.455v-3.195h-1.559v-3.195h-1.169v-1.871h-3.819v-3.195c0,0,6.469-3.741-1.013-11.456
			c0,0-0.234,4.442-3.039,4.442c-1.52,1.52-3.039,6.43,0,9.118c0,0.701,0,1.52,0,1.52h-4.676v1.442h-1.169v3.195h-1.559v3.195h4.832
			c0,0,3.156,17.418,3.507,20.107c0.351,2.689,0.468,15.431,2.572,21.86c0,0,0.788,4.37,0.514,7.109
			c-0.083,0.827-0.437,1.577-1.017,2.171c-1.519,1.552-4.289,6.827-4.289,9.424c0,2.623,3.955,9.766,6.794,12.808
			c0.639,0.684,0.967,1.56,0.975,2.496c0.031,3.646,0.026,11.546,3.571,15.09c0.784,0.785-0.026,3.145-0.243,4.007
			c-0.517,2.046-1.207,4.203-2.227,6.059c-2.245,4.083-2.711,11.639,0.834,15.184c1.352,1.352-0.643,4.422-1.262,5.673
			c-1.405,2.836-1.364,6.187-1.051,9.313c0.286,2.858,1.603,7.323,3.312,9.631c0.53,0.716,0.881,1.544,0.881,2.436v55.362v2.543
			h-7.949v11.69h-14.34v9.352h2.65v60.788h-5.923v43.721h95.538v-43.721H226.823z"/>
		<polygon points="681.283,664.846 681.283,500.398 606.167,500.398 606.167,703.266 624.299,703.266 681.283,703.266 
			699.414,703.266 699.414,664.846 		"/>
		<polygon points="763.26,524.441 763.26,520.423 761.693,520.423 761.693,522.432 756.268,522.432 756.268,520.423 
			754.701,520.423 754.701,522.432 749.056,522.432 749.056,520.423 747.489,520.423 747.489,522.432 740.216,522.432 
			740.216,520.423 738.649,520.423 738.649,522.432 727.68,522.432 727.68,520.423 726.112,520.423 726.112,522.432 
			720.808,522.432 720.808,520.423 719.241,520.423 719.241,522.432 717.554,522.432 717.554,524.441 717.554,647.123 
			692.963,647.123 692.963,703.266 717.554,703.266 725.269,703.266 764.807,703.266 764.807,524.441 		"/>
		<path d="M881.317,521.972v-15.692l-3.433-3.433v-8.532h0.022l-3.787-3.82v-10.18c0-0.324-0.264-0.588-0.588-0.588
			s-0.589,0.264-0.589,0.588v10.181l-3.787,3.819v8.532h-2.157l-26.48,19.124v181.294h44.329V521.972H881.317z"/>
		<polygon points="928.213,662.231 928.213,581.499 921.141,581.499 921.141,574.859 902.497,574.859 902.497,581.499 
			895.425,581.499 895.425,703.266 911.819,703.266 928.213,703.266 944.607,703.266 944.607,662.231 		"/>
		<polygon points="1035.689,653.15 1035.689,587.446 1064.861,587.446 1064.861,703.266 1035.689,703.266 1006.517,703.266 
			1006.517,653.15 		"/>
		<polygon points="1082.43,668.171 1082.43,645.33 1064.861,645.33 1064.861,703.266 1082.43,703.266 1100,703.266 1100,668.171 		
			"/>
		<polygon style="fill:#414042;" points="625.082,662.233 597.633,662.233 597.633,674.412 591.268,674.412 591.268,668.323 
			572.968,668.323 572.968,666.568 564.216,666.568 564.216,668.323 559.442,668.323 559.442,676.063 546.314,676.063 
			546.314,669.148 533.584,669.148 533.584,676.063 520.058,676.063 520.058,662.233 506.533,662.233 506.533,676.063 
			493.803,676.063 493.803,678.127 476.1,678.127 476.1,673.793 463.171,673.793 463.171,666.568 432.539,666.568 432.539,673.586 
			415.234,673.586 415.234,666.878 397.332,666.878 397.332,673.689 383.21,673.689 383.21,668.942 371.076,668.942 
			362.921,668.942 362.921,662.233 348.202,662.233 348.202,678.127 340.643,678.127 340.643,673.586 332.289,673.586 
			332.289,669.252 306.431,669.252 306.431,678.127 301.657,678.127 301.657,669.045 295.69,669.045 295.69,666.568 
			278.584,666.568 278.584,669.045 269.036,673.999 260.284,673.999 260.284,666.155 249.941,666.155 249.941,676.889 
			243.974,676.889 243.974,703.266 625.082,703.266 		"/>
		<polygon style="fill:#414042;" points="739.469,654.476 739.469,648.955 726.052,648.955 726.052,654.476 723.045,654.476 
			717.493,662.311 696.499,662.311 696.499,673.825 652.791,673.825 652.791,703.266 696.499,703.266 696.499,703.035 
			748.028,703.035 748.028,662.311 742.476,654.476 		"/>
		<polygon style="fill:#414042;" points="921.881,655.445 928.486,664.256 928.63,664.256 928.63,669.4 944.467,669.4 
			944.467,666.314 980.141,666.314 980.141,664.256 985.693,657.741 988.7,657.741 988.7,653.15 1002.116,653.15 1002.116,657.741 
			1005.124,657.741 1010.675,664.256 1033.345,664.256 1038.897,657.741 1041.904,657.741 1041.904,653.15 1055.321,653.15 
			1055.321,657.741 1058.328,657.741 1063.879,664.256 1063.879,670.51 1082.578,670.51 1082.578,703.266 1063.879,703.266 
			1063.879,703.266 980.159,703.266 980.141,703.266 928.63,703.266 915.132,703.266 915.132,664.256 915.277,664.256 		"/>
		<polygon style="fill:#414042;" points="893.122,654.857 889.547,654.857 889.547,652.352 885.971,652.352 885.971,657.362 
			883.882,657.362 883.882,652.352 880.307,652.352 880.307,654.857 876.732,654.857 876.732,657.362 864.305,657.362 
			864.305,703.266 905.549,703.266 905.549,657.362 893.122,657.362 		"/>
		<path style="fill:#414042;" d="M832.088,676.946v-13.98h-24.887v3.042h-16.307v-3.477h-5.356v-3.477h-0.067l-9.084-3.529v-8.911
			c0-0.246-0.259-0.446-0.579-0.446c-0.32,0-0.579,0.199-0.579,0.446v8.911l-9.084,3.529v3.477h-5.356v3.477v37.259h46.412h38.385
			v-26.32H832.088z"/>
		<g>
			<rect x="100" y="683.734" style="fill:#6D6E71;" width="1000" height="17.258"/>
			<rect x="100" y="686.008" width="1000" height="17.258"/>
		</g>
	</g>
	<g>
		<path d="M225.876,909.593v-57.365h15.15l11.916,21.023c3.405,6.043,6.809,13.192,9.362,19.661h0.255
			c-0.851-7.574-1.107-15.32-1.107-23.915v-16.768h11.916v57.365h-13.617l-12.256-22.129c-3.405-6.128-7.149-13.533-9.959-20.257
			l-0.255,0.086c0.341,7.575,0.511,15.661,0.511,25.023v17.277H225.876z"/>
		<path d="M318.728,885.337H297.62v13.617h23.576v10.639h-36.598v-57.365h35.407v10.639H297.62v11.916h21.108V885.337z"/>
		<path d="M339.917,909.593l-13.618-57.365h13.874l4.34,23.661c1.276,6.809,2.468,14.213,3.405,20.001h0.17
			c0.936-6.213,2.298-13.108,3.745-20.171l4.851-23.492h13.788l4.596,24.172c1.277,6.724,2.214,12.851,3.064,19.235h0.171
			c0.85-6.384,2.127-13.108,3.319-19.916l4.681-23.492h13.192l-14.81,57.365h-14.044l-4.851-24.683
			c-1.107-5.788-2.043-11.15-2.724-17.704h-0.17c-1.021,6.468-1.957,11.916-3.319,17.704l-5.447,24.683H339.917z"/>
		<path d="M433.278,909.593v-23.49l-18.129-33.875h14.81l5.872,13.788c1.787,4.171,2.98,7.234,4.426,10.98h0.171
			c1.277-3.576,2.637-6.895,4.34-10.98l5.788-13.788h14.553l-18.895,33.449v23.917H433.278z"/>
		<path d="M519.833,880.315c0,18.809-11.405,30.214-28.173,30.214c-17.022,0-26.979-12.851-26.979-29.193
			c0-17.193,10.979-30.044,27.916-30.044C510.216,851.292,519.833,864.484,519.833,880.315z M478.384,881.081
			c0,11.235,5.276,19.15,13.958,19.15c8.766,0,13.788-8.341,13.788-19.491c0-10.298-4.936-19.15-13.874-19.15
			C483.49,861.59,478.384,869.931,478.384,881.081z"/>
		<path d="M528.34,852.993c4.171-0.68,10.384-1.191,17.279-1.191c8.511,0,14.469,1.277,18.554,4.51
			c3.405,2.724,5.277,6.724,5.277,12.001c0,7.32-5.192,12.342-10.128,14.129v0.255c4,1.616,6.213,5.447,7.659,10.723
			c1.787,6.468,3.576,13.959,4.681,16.172h-13.276c-0.937-1.617-2.299-6.299-4.001-13.362c-1.532-7.15-4.001-9.107-9.277-9.193
			h-3.915v22.554H528.34V852.993z M541.193,877.676h5.106c6.468,0,10.298-3.233,10.298-8.256c0-5.277-3.574-7.916-9.532-8
			c-3.149,0-4.937,0.255-5.872,0.425V877.676z"/>
		<path d="M578.807,852.227h12.853v25.363h0.255c1.277-2.212,2.639-4.255,3.915-6.297l13.022-19.066h15.915l-18.98,24.427
			l20.001,32.938H610.64l-14.044-24.768l-4.937,6.043v18.725h-12.853V852.227z"/>
		<path d="M649.955,909.593v-57.365h8.086l18.384,29.023c4.256,6.724,7.575,12.767,10.298,18.639l0.171-0.084
			c-0.682-7.661-0.851-14.64-0.851-23.576v-24.002h6.979v57.365h-7.49l-18.214-29.108c-4-6.383-7.831-12.937-10.724-19.15
			l-0.255,0.086c0.426,7.234,0.596,14.128,0.596,23.66v24.513H649.955z"/>
		<path d="M709.869,890.357c0.17,10.128,6.638,14.299,14.128,14.299c5.363,0,8.596-0.936,11.406-2.128l1.276,5.363
			c-2.639,1.191-7.15,2.553-13.704,2.553c-12.682,0-20.255-8.341-20.255-20.767c0-12.426,7.319-22.215,19.32-22.215
			c13.447,0,17.022,11.831,17.022,19.407c0,1.532-0.17,2.723-0.255,3.489H709.869z M731.827,884.996
			c0.086-4.767-1.957-12.171-10.384-12.171c-7.574,0-10.894,6.979-11.489,12.171H731.827z"/>
		<path d="M751.315,868.399l5.447,20.937c1.191,4.596,2.298,8.852,3.064,13.108h0.255c0.936-4.171,2.298-8.596,3.66-13.022
			l6.724-21.023h6.297l6.384,20.596c1.532,4.937,2.723,9.278,3.66,13.449h0.255c0.68-4.171,1.787-8.512,3.149-13.363l5.872-20.682
			h7.404l-13.276,41.194h-6.809l-6.299-19.66c-1.446-4.596-2.639-8.682-3.66-13.533h-0.17c-1.021,4.937-2.298,9.193-3.745,13.617
			l-6.638,19.576h-6.809l-12.426-41.194H751.315z"/>
		<path d="M838.123,909.593v-24.342l-18.129-33.024h8.425l8.086,15.831c2.214,4.34,3.915,7.831,5.703,11.831h0.17
			c1.617-3.745,3.576-7.491,5.788-11.831l8.256-15.831h8.427l-19.235,32.938v24.427H838.123z"/>
		<path d="M901.955,888.656c0,15.235-10.553,21.873-20.512,21.873c-11.15,0-19.745-8.17-19.745-21.192
			c0-13.788,9.021-21.874,20.427-21.874C893.955,867.462,901.955,876.058,901.955,888.656z M869.272,889.081
			c0,9.021,5.192,15.831,12.512,15.831c7.15,0,12.512-6.724,12.512-16.001c0-6.979-3.49-15.831-12.342-15.831
			C873.103,873.08,869.272,881.25,869.272,889.081z"/>
		<path d="M911.399,881.25c0-4.851-0.086-9.021-0.341-12.851h6.554l0.255,8.086h0.341c1.873-5.533,6.383-9.023,11.405-9.023
			c0.852,0,1.446,0.086,2.128,0.255v7.065c-0.766-0.17-1.532-0.255-2.554-0.255c-5.276,0-9.022,4.001-10.043,9.618
			c-0.17,1.021-0.34,2.214-0.34,3.49v21.958h-7.405V881.25z"/>
		<path d="M946.973,887.294h0.171c1.021-1.446,2.468-3.235,3.66-4.681l12.085-14.213h9.021l-15.915,16.938l18.129,24.256h-9.107
			l-14.213-19.746l-3.831,4.256v15.49h-7.404v-60.429h7.404V887.294z"/>
	</g>

</g>
</svg>
